Coordinates
version=1
nRows=9
nColumns=24
inDegrees=yes

Units are S.I. units (second, meters, Newtons, ...)
Angles are in degrees.

endheader
time	pelvis_tilt	pelvis_list	pelvis_rotation	pelvis_tx	pelvis_ty	pelvis_tz	hip_flexion_r	hip_adduction_r	hip_rotation_r	knee_angle_r	ankle_angle_r	subtalar_angle_r	mtp_angle_r	hip_flexion_l	hip_adduction_l	hip_rotation_l	knee_angle_l	ankle_angle_l	subtalar_angle_l	mtp_angle_l	lumbar_extension	lumbar_bending	lumbar_rotation
      1.31700000	     -3.03725778	      3.31858347	     -3.24739536	      0.25982073	      0.90716758	      0.32211677	     17.24669827	     -8.34468612	    -10.73728082	    -71.31980391	     -2.52787250	      5.25425787	      8.82986001	     13.42877154	      6.90422980	     -2.65608705	    -18.07515747	      9.91403720	     -6.75580469	      1.42149317	     -4.87940491	     -5.29559944	      3.60404787
      1.32116667	     -3.03969991	      3.12030952	     -3.09410103	      0.26487367	      0.90824448	      0.32188511	     17.83094592	     -8.14215478	    -10.98737907	    -71.02396805	     -1.91571228	      5.12408978	      8.64988194	     12.80821432	      6.76243842	     -2.40108061	    -17.56468587	      9.95332873	     -6.74324532	      1.42819483	     -4.93684670	     -5.03845554	      3.25151445
      1.32533333	     -3.05620502	      2.92307233	     -2.94325432	      0.26992692	      0.90927824	      0.32167286	     18.41767846	     -7.93037204	    -11.22827291	    -70.66121373	     -1.33043097	      4.96637752	      8.48038266	     12.20614961	      6.61108131	     -2.18367772	    -17.05420648	      9.97164341	     -6.69576847	      1.43482211	     -4.95338337	     -4.80202427	      3.00937740
      1.32950000	     -3.05988851	      2.72216425	     -2.78558839	      0.27498375	      0.91030244	      0.32145270	     18.97032844	     -7.71351685	    -11.47529978	    -70.22664510	     -0.77021588	      4.82170859	      8.31666400	     11.58964824	      6.45317708	     -1.96939226	    -16.53920471	      9.98987824	     -6.63622504	      1.44222724	     -4.97973271	     -4.56383044	      2.76524335
      1.33366667	     -3.08788783	      2.51857376	     -2.61947366	      0.28000901	      0.91124910	      0.32124435	     19.53706489	     -7.48606061	    -11.72419104	    -69.73385242	     -0.19762257	      4.66044095	      8.26461130	     11.02282100	      6.28030571	     -1.80402124	    -16.06357287	      9.98564646	     -6.52159904	      1.44567937	     -4.97119952	     -4.33495102	      2.64812018
      1.33783333	     -3.02940160	      2.29809341	     -2.43307704	      0.28507216	      0.91233122	      0.32098008	     19.96804670	     -7.25838428	    -12.00897337	    -69.14041590	      0.27491188	      4.56050335	      8.09962023	     10.32391018	      6.10721764	     -1.52983993	    -15.51240234	     10.01914050	     -6.50543311	      1.45283889	     -5.08068091	     -4.06643008	      2.26136653
      1.34200000	     -3.03971225	      2.08022866	     -2.24112730	      0.29006419	      0.91323705	      0.32074010	     20.47555622	     -7.01868776	    -12.28389310	    -68.51336090	      0.81665483	      4.42660918	      8.04299368	      9.74707126	      5.91610622	     -1.34017535	    -15.04394246	     10.00214316	     -6.40164703	      1.45609189	     -5.11005602	     -3.79395762	      2.12469819
      1.34616667	     -2.97334976	      1.86876490	     -2.03534700	      0.29511077	      0.91425241	      0.32044107	     20.86416455	     -6.80590967	    -12.58514589	    -67.79960656	      1.25947514	      4.34957615	      7.69131365	      9.03580635	      5.75228305	     -1.03085653	    -14.46900818	      9.98553283	     -6.47633827	      1.46798657	     -5.21309118	     -3.53844513	      1.61732697
      1.35033333	     -2.90870958	      1.63358854	     -1.83434831	      0.30011360	      0.91521542	      0.32019246	     21.24110870	     -6.54874919	    -12.87251410	    -67.01853404	      1.67953608	      4.24322902	      7.57138250	      8.36072873	      5.53987707	     -0.81045870	    -13.96239803	     10.03355874	     -6.35886469	      1.47547262	     -5.34414957	     -3.25751776	      1.44269806
